<?xml version="1.0" encoding="iso-8859-1"?>
<!-- Uploaded to: SVG Repo, www.svgrepo.com, Generator: SVG Repo Mixer Tools -->
<svg version="1.1" id="Layer_1" xmlns="http://www.w3.org/2000/svg" xmlns:xlink="http://www.w3.org/1999/xlink" 
	 viewBox="0 0 511.999 511.999" xml:space="preserve">
<path style="fill:#FCBB3B;" d="M36.771,184.518l36.92-10.196l69.279,59.017l283.056-78.168l60.907,21.095
	c7.724,2.676,13.606,8.909,15.757,16.7l0,0c3.642,13.185-4.277,26.877-17.686,30.58l-352.262,94.838l-75.919-61.252L36.771,184.518z
	"/>
<path style="fill:#75C0C7;" d="M305.961,236.009l-110.76,30.587c-5.098,1.408-10.372-1.583-11.779-6.681l0,0
	c-1.408-5.098,1.583-10.372,6.681-11.779l110.76-30.587c5.098-1.408,10.372,1.583,11.779,6.681l0,0
	C314.05,229.327,311.059,234.601,305.961,236.009z"/>
<polyline style="fill:#4BAF78;" points="291.221,266.569 284.424,241.957 259.811,248.754 266.93,274.536 291.221,266.569 "/>
<polygon style="fill:#BD8C2C;" points="90.317,249.208 70.423,175.571 73.993,174.585 73.69,174.322 36.769,184.518 56.663,258.155 
	134.632,323.058 167.974,313.851 "/>
<polygon style="fill:#4BAF78;" points="497.223,222.279 132.963,319.121 113.75,307.979 500.777,205.084 "/>
<path style="fill:#E0DCCD;" d="M309.682,261.472l-36.92,10.196c-13.594,3.754-21.571,17.818-17.816,31.41l0,0
	c3.754,13.594,17.818,21.571,31.41,17.816l36.92-10.196"/>
<path style="fill:#A8A59A;" d="M281.219,296.093c-3.754-13.594,5.603-28.024,19.196-31.777l12.096-3.326l-0.066-0.252L274.144,271.3
	c-13.594,3.754-22.262,18-18.506,31.594c3.754,13.594,17.472,21.662,31.065,17.908l23.536-6.502
	C297.484,316.458,284.738,308.832,281.219,296.093z"/>
<path style="fill:#589095;" d="M14.821,236.938l61.533-16.994c5.098-1.408,10.372,1.584,11.779,6.681l0,0
	c1.408,5.098-1.584,10.372-6.681,11.779l-61.533,16.994c-5.098,1.408-10.372-1.584-11.779-6.681l0,0
	C6.733,243.62,9.723,238.346,14.821,236.938z"/>
<rect x="315.895" y="249.913" transform="matrix(-0.9639 0.2662 -0.2662 -0.9639 726.7581 465.1531)" style="fill:#75C0C7;" width="31.918" height="63.838"/>
<rect x="346.561" y="264.688" transform="matrix(-0.2662 -0.9639 0.9639 -0.2662 200.4178 697.5315)" style="fill:#E0DCCD;" width="38.302" height="15.585"/>
<rect x="285.249" y="283.383" transform="matrix(-0.2662 -0.9639 0.9639 -0.2662 96.6806 655.9503)" width="25.534" height="15.585"/>
<g>
	
		<rect x="428.441" y="145.046" transform="matrix(-0.2662 -0.9639 0.9639 -0.2662 378.7068 648.6049)" style="fill:#FFFFFF;" width="15.585" height="70.217"/>
	
		<rect x="376.135" y="188.222" transform="matrix(-0.2662 -0.9639 0.9639 -0.2662 298.5478 616.485)" style="fill:#FFFFFF;" width="15.585" height="12.768"/>
	
		<rect x="357.689" y="193.319" transform="matrix(-0.2662 -0.9639 0.9639 -0.2662 270.2769 605.1583)" style="fill:#FFFFFF;" width="15.585" height="12.768"/>
	
		<rect x="339.221" y="198.409" transform="matrix(-0.2662 -0.9639 0.9639 -0.2662 241.9877 593.8023)" style="fill:#FFFFFF;" width="15.585" height="12.768"/>
	
		<rect x="320.746" y="203.499" transform="matrix(-0.2661 -0.9639 0.9639 -0.2661 213.6521 582.4258)" style="fill:#FFFFFF;" width="15.585" height="12.766"/>
	
		<rect x="154.628" y="249.383" transform="matrix(-0.2661 -0.9639 0.9639 -0.2661 -40.9013 480.3918)" style="fill:#FFFFFF;" width="15.585" height="12.766"/>
</g>
<path d="M298.396,249.88l1.7,6.154l-3.437,0.949l-2.649-9.59l14.025-3.874c4.471-1.234,8.195-4.136,10.484-8.172
	c2.289-4.036,2.869-8.721,1.634-13.192c-1.235-4.473-4.137-8.196-8.173-10.485c-4.035-2.287-8.721-2.868-13.193-1.633
	l-110.761,30.587c-9.231,2.551-14.667,12.135-12.118,21.366c1.235,4.473,4.137,8.196,8.173,10.485
	c2.649,1.501,5.578,2.268,8.541,2.268c1.552,0,3.115-0.21,4.652-0.634l57.098-15.769l3.493,12.649
	c-1.465,1.26-2.808,2.642-4.023,4.123l-3.315-12.012l-131.942,36.405l-54.562-45.567l-0.676-2.449l20.177-5.572
	c4.472-1.234,8.196-4.136,10.485-8.172c2.289-4.037,2.869-8.722,1.634-13.192c-2.55-9.232-12.129-14.666-21.366-12.119
	l-61.53,16.992l0,0c-9.231,2.551-14.667,12.135-12.118,21.366c1.235,4.473,4.137,8.196,8.173,10.485
	c2.649,1.501,5.577,2.268,8.541,2.268c1.552,0,3.115-0.21,4.652-0.634l26.331-7.272l1.972,7.142l82.474,68.877L246.47,300.26
	c0.197,1.63,0.515,3.265,0.965,4.895c4.075,14.757,17.519,24.459,32.135,24.459c2.929,0,5.905-0.39,8.862-1.206l29.409-8.121
	l1.699,6.153l45.79-12.644l-21.142-76.558L298.396,249.88z M17.844,247.886c-0.589,0.164-1.061-0.002-1.354-0.167
	c-0.293-0.166-0.676-0.487-0.839-1.075c-0.262-0.948,0.296-1.932,1.244-2.193l61.533-16.993c0.944-0.259,1.932,0.296,2.193,1.245
	c0.162,0.587-0.001,1.061-0.167,1.353c-0.166,0.293-0.488,0.676-1.076,0.84L17.844,247.886z M193.126,259.084
	c-0.588,0.163-1.061-0.001-1.354-0.167c-0.293-0.166-0.676-0.487-0.839-1.075c-0.262-0.948,0.297-1.932,1.244-2.193l110.761-30.587
	c0.171-0.048,0.333-0.066,0.482-0.066c0.366,0,0.664,0.116,0.871,0.235c0.293,0.166,0.676,0.487,0.839,1.075
	c0.162,0.588-0.001,1.061-0.167,1.355c-0.166,0.292-0.487,0.675-1.075,0.839L193.126,259.084z M278.988,251.542l2.649,9.59
	l-9.589,2.649l-2.649-9.59L278.988,251.542z M133.139,311.658l117.87-32.522c-0.828,1.379-1.555,2.817-2.179,4.302L136.494,314.46
	L133.139,311.658z M284.282,313.383c-9.434,2.605-19.22-2.95-21.824-12.378c-2.604-9.43,2.949-19.22,12.379-21.825l29.408-8.121
	l9.446,34.203L284.282,313.383z M330.413,307.266l-12.845-46.511l15.744-4.348l12.844,46.511L330.413,307.266z"/>
<path d="M510.794,193.048c-2.862-10.366-10.62-18.702-20.752-22.3l-63.386-22.513l-281.403,77.712l-69.618-60.246l-48.452,13.382
	l10.571,38.277l15.024-4.148l-6.422-23.256l25.389-7.011l69.618,60.246l284.708-78.626l58.756,20.869
	c4.788,1.701,8.564,5.41,10.385,10.094l-146.23,40.383l4.149,15.024l139.7-38.579c-2.291,3.021-5.478,5.211-9.196,6.237
	l-111.095,30.68l4.149,15.024l111.095-30.68c8.492-2.345,15.563-7.856,19.908-15.519S513.14,201.538,510.794,193.048z"/>
<g>
	
		<rect x="148.42" y="259.049" transform="matrix(-0.2569 -0.9664 0.9664 -0.2569 -137.4827 585.1341)" style="fill:#E0DCCD;" width="15.585" height="172.745"/>
	
		<rect x="270.57" y="310.662" transform="matrix(-0.2569 -0.9664 0.9664 -0.2569 0.3139 723.6487)" style="fill:#E0DCCD;" width="15.585" height="102.082"/>
	
		<rect x="175.476" y="351.131" transform="matrix(-0.257 -0.9664 0.9664 -0.257 -127.9384 643.162)" style="fill:#E0DCCD;" width="15.586" height="39.262"/>
	
		<rect x="350.251" y="332.687" transform="matrix(-0.257 -0.9664 0.9664 -0.257 120.9577 774.08)" style="fill:#E0DCCD;" width="15.586" height="15.71"/>
	
		<rect x="290.429" y="63.258" transform="matrix(-0.2569 -0.9664 0.9664 -0.2569 218.8477 491.0872)" style="fill:#E0DCCD;" width="15.585" height="196.3"/>
	
		<rect x="157.17" y="132.958" transform="matrix(-0.257 -0.9664 0.9664 -0.257 48.5109 366.0327)" style="fill:#E0DCCD;" width="15.586" height="62.82"/>
	
		<rect x="165.234" y="186.867" transform="matrix(-0.257 -0.9664 0.9664 -0.257 29.3178 411.9745)" style="fill:#E0DCCD;" width="15.586" height="15.7"/>
</g>
</svg>